<svg width="179" height="47" viewBox="0 0 179 47" fill="none" xmlns="http://www.w3.org/2000/svg">
<path d="M14.7611 36.5589C12.7627 36.5589 10.9309 36.1544 9.26558 35.3456C7.60028 34.5208 6.14909 33.3393 4.91201 31.8009C3.69079 30.2466 2.7392 28.3513 2.05722 26.1151C1.3911 23.8788 1.05804 21.3491 1.05804 18.526C1.05804 15.6871 1.3911 13.1654 2.05722 10.9608C2.7392 8.74044 3.69079 6.86103 4.91201 5.32261C6.14909 3.78419 7.60028 2.61848 9.26558 1.82548C10.9467 1.03249 12.7786 0.635986 14.7611 0.635986C16.7594 0.635986 18.5912 1.03249 20.2565 1.82548C21.9377 2.61848 23.3889 3.78419 24.6101 5.32261C25.8472 6.86103 26.7988 8.74044 27.4649 10.9608C28.1469 13.1654 28.4879 15.6871 28.4879 18.526C28.4879 21.3491 28.1469 23.8788 27.4649 26.1151C26.7988 28.3513 25.8472 30.2466 24.6101 31.8009C23.3889 33.3393 21.9377 34.5208 20.2565 35.3456C18.5912 36.1544 16.7594 36.5589 14.7611 36.5589ZM14.7611 33.8944C16.8704 33.8944 18.7261 33.2996 20.3279 32.1101C21.9456 30.9206 23.2065 29.184 24.1105 26.9001C25.0304 24.6163 25.4903 21.8249 25.4903 18.526C25.4903 15.2113 25.0304 12.4279 24.1105 10.1758C23.1906 7.90779 21.9218 6.19491 20.3041 5.03713C18.7023 3.87935 16.8546 3.30046 14.7611 3.30046C12.6834 3.30046 10.8357 3.87935 9.218 5.03713C7.60028 6.19491 6.33148 7.90779 5.4116 10.1758C4.49172 12.4279 4.03178 15.2113 4.03178 18.526C4.03178 21.8408 4.49172 24.6401 5.4116 26.9239C6.33148 29.2077 7.60028 30.9444 9.218 32.1339C10.8357 33.3076 12.6834 33.8944 14.7611 33.8944Z" fill="#222222"/>
<path d="M32.6805 46.5031V10.8419H35.6304V46.5031H32.6805ZM44.3376 36.5589C42.4027 36.5589 40.6105 36.091 38.961 35.1552C37.3116 34.2195 35.9794 32.9507 34.9643 31.3488C33.9651 29.747 33.4656 27.9469 33.4656 25.9485C33.4656 25.9009 33.4656 25.8613 33.4656 25.8296C33.4656 25.7979 33.4656 25.7661 33.4656 25.7344L35.6304 25.6868C35.6304 25.7186 35.6304 25.7503 35.6304 25.782C35.6304 25.8137 35.6304 25.8454 35.6304 25.8771C35.6304 27.3045 36.019 28.6209 36.7962 29.8263C37.5733 31.0316 38.5883 31.9912 39.8413 32.7049C41.1101 33.4186 42.482 33.7754 43.9569 33.7754C46.3994 33.7754 48.4057 32.9111 49.9758 31.1823C51.5618 29.4377 52.3548 26.8684 52.3548 23.4744C52.3548 20.0645 51.5618 17.4951 49.9758 15.7664C48.4057 14.0377 46.3994 13.1733 43.9569 13.1733C42.482 13.1733 41.1101 13.5302 39.8413 14.2439C38.5883 14.9576 37.5733 15.9092 36.7962 17.0986C36.019 18.2881 35.6304 19.6045 35.6304 21.0478L33.4656 20.9764C33.4656 18.9781 33.9651 17.1859 34.9643 15.5999C35.9794 14.0139 37.3116 12.7689 38.961 11.8649C40.6105 10.945 42.4027 10.485 44.3376 10.485C46.3835 10.485 48.2391 10.9926 49.9044 12.0076C51.5697 13.0068 52.894 14.4738 53.8774 16.4087C54.8765 18.3437 55.3761 20.6989 55.3761 23.4744C55.3761 26.2816 54.8845 28.6606 53.9011 30.6114C52.9337 32.5621 51.6094 34.045 49.9282 35.0601C48.2629 36.0593 46.3994 36.5589 44.3376 36.5589Z" fill="#222222"/>
<path d="M60.517 24.7114V22.0708H80.9764L80.4054 22.8796C80.4054 22.7845 80.4054 22.7052 80.4054 22.6417C80.4054 22.5624 80.4054 22.4831 80.4054 22.4038C80.4054 20.7702 80.0565 19.2477 79.3587 17.8361C78.6608 16.4246 77.6458 15.2906 76.3135 14.4342C74.9972 13.5777 73.3874 13.1495 71.4842 13.1495C69.5493 13.1495 67.8443 13.5936 66.3693 14.4818C64.8943 15.3541 63.7445 16.5673 62.9198 18.1216C62.0951 19.66 61.6827 21.4522 61.6827 23.4982C61.6827 25.56 62.0871 27.3759 62.896 28.9461C63.7207 30.5003 64.8706 31.7136 66.3455 32.5859C67.8205 33.4424 69.5413 33.8706 71.508 33.8706C72.9512 33.8706 74.2042 33.6961 75.2668 33.3472C76.3453 32.9824 77.2334 32.5066 77.9313 31.9198C78.645 31.333 79.1842 30.7144 79.549 30.0642C79.9296 29.3981 80.1517 28.7716 80.2151 28.1848H83.1413C83.0778 29.1205 82.7765 30.08 82.2372 31.0634C81.7139 32.0308 80.9605 32.9348 79.9772 33.7754C79.0097 34.616 77.8044 35.298 76.3611 35.8214C74.9337 36.3289 73.2843 36.5826 71.4128 36.5826C68.9704 36.5826 66.7975 36.0275 64.8943 34.9173C63.007 33.8071 61.5162 32.2767 60.4218 30.3259C59.3434 28.3592 58.8041 26.0992 58.8041 23.5457C58.8041 20.9764 59.3513 18.7164 60.4456 16.7656C61.54 14.799 63.0387 13.2605 64.9419 12.1503C66.8451 11.0401 69.01 10.485 71.4366 10.485C73.9108 10.485 76.0518 11.0481 77.8599 12.1741C79.6679 13.3002 81.0636 14.8307 82.0469 16.7656C83.0302 18.6846 83.5219 20.8416 83.5219 23.2365C83.5219 23.4426 83.514 23.7043 83.4981 24.0215C83.4981 24.3387 83.4902 24.5687 83.4743 24.7114H60.517Z" fill="#222222"/>
<path d="M106.27 36.1068V23.5457C106.27 22.7686 106.27 22.1501 106.27 21.6901C106.27 21.2302 106.27 20.7782 106.27 20.3341C106.27 18.9225 106.016 17.6934 105.509 16.6466C105.017 15.584 104.256 14.7593 103.225 14.1725C102.194 13.5698 100.87 13.2685 99.2519 13.2685C97.8245 13.2685 96.4843 13.6253 95.2314 14.339C93.9785 15.0369 92.9634 15.9885 92.1863 17.1938C91.425 18.3992 91.0444 19.7552 91.0444 21.2619L89.2601 20.5958C89.2601 18.6767 89.7518 16.9559 90.7351 15.4334C91.7343 13.9108 93.0348 12.7054 94.6367 11.8173C96.2544 10.9291 97.9673 10.485 99.7753 10.485C101.694 10.485 103.36 10.8498 104.771 11.5794C106.183 12.2931 107.269 13.3319 108.03 14.6959C108.808 16.044 109.196 17.6855 109.196 19.6204C109.196 20.2865 109.196 21.0002 109.196 21.7615C109.196 22.5228 109.196 23.2127 109.196 23.8312V36.1068H106.27ZM88.0944 36.1068V10.8419H91.0444V36.1068H88.0944Z" fill="#222222"/>
<path fill-rule="evenodd" clip-rule="evenodd" d="M167.011 28.207C167.315 30.0482 169.718 31.0355 171.305 29.1168C172.496 27.6776 174.628 27.476 176.067 28.6667C177.506 29.8574 177.708 31.9893 176.517 33.4286C170.944 40.1652 160.603 36.5432 160.252 28.0477C160.238 27.9273 160.232 27.8083 160.232 27.6915L160.247 10.1115C160.247 8.36125 161.761 6.94238 163.629 6.94238C165.497 6.94238 167.011 8.36126 167.011 10.1115L167.011 28.207Z" fill="url(#paint0_linear_3865_1929)"/>
<path fill-rule="evenodd" clip-rule="evenodd" d="M129.144 9.4838C130.762 10.4178 131.316 12.4862 130.382 14.1039L118.457 34.7575C117.524 36.3751 115.455 36.9294 113.837 35.9954C112.22 35.0615 111.665 32.993 112.599 31.3753L124.524 10.7217C125.458 9.10409 127.526 8.54984 129.144 9.4838Z" fill="url(#paint1_linear_3865_1929)"/>
<path fill-rule="evenodd" clip-rule="evenodd" d="M147.442 36.625C145.574 36.625 144.06 35.1108 144.06 33.2429L144.06 15.2379C144.06 13.3699 145.574 11.8557 147.442 11.8557C149.31 11.8557 150.825 13.3699 150.825 15.2379L150.825 33.2429C150.825 35.1108 149.31 36.625 147.442 36.625Z" fill="url(#paint2_linear_3865_1929)"/>
<path fill-rule="evenodd" clip-rule="evenodd" d="M150.28 23.157L149.036 23.1824L144.057 23.1489C144.102 21.8786 144.864 19.5147 145.44 18.4085C146.043 17.2522 146.9 16.0621 147.984 15.041C150.166 12.9871 153.628 11.3596 157.655 12.8691C159.258 13.4702 160.07 15.2572 159.469 16.8605C158.868 18.4638 157.081 19.2762 155.478 18.6751C154.348 18.2515 153.299 18.5532 152.235 19.5552C151.697 20.062 151.25 20.4932 150.939 21.2746C150.787 21.9978 150.821 23.1485 150.821 23.1485L150.28 23.157Z" fill="url(#paint3_linear_3865_1929)"/>
<path fill-rule="evenodd" clip-rule="evenodd" d="M160.232 15.9513L160.232 13.0869L171.362 13.087C172.628 13.087 174.326 14.3142 174.326 16.0265C174.477 17.6691 173.132 19.2876 171.362 19.2876H160.247L160.232 15.9513Z" fill="url(#paint4_linear_3865_1929)"/>
<g style="mix-blend-mode:overlay" opacity="0.2">
<path d="M160.246 19.3159H166.986L166.986 22.248H160.246V19.3159Z" fill="url(#paint5_linear_3865_1929)"/>
</g>
<path fill-rule="evenodd" clip-rule="evenodd" d="M124.319 11.15C124.592 10.4722 125.084 9.87725 125.766 9.48372C127.384 8.54976 129.452 9.10401 130.386 10.7217L142.311 31.3752C143.244 32.9929 142.69 35.0614 141.073 35.9953C139.455 36.9293 137.386 36.375 136.452 34.7574L127.413 19.1004L127.462 19.2267C125.668 15.6631 122.899 15.2833 121.739 15.5389L124.306 11.1144L124.319 11.15Z" fill="url(#paint6_linear_3865_1929)"/>
<defs>
<linearGradient id="paint0_linear_3865_1929" x1="160.232" y1="6.94238" x2="183.492" y2="12.9567" gradientUnits="userSpaceOnUse">
<stop stop-color="#9D0AFC"/>
<stop offset="1" stop-color="#0359FF"/>
</linearGradient>
<linearGradient id="paint1_linear_3865_1929" x1="126.581" y1="12.9393" x2="132.053" y2="19.5146" gradientUnits="userSpaceOnUse">
<stop stop-color="#00DFBA"/>
<stop offset="1" stop-color="#048AFE"/>
</linearGradient>
<linearGradient id="paint2_linear_3865_1929" x1="147.542" y1="12.7604" x2="147.542" y2="38.744" gradientUnits="userSpaceOnUse">
<stop stop-color="#5900EB"/>
<stop offset="1" stop-color="#E367EE"/>
</linearGradient>
<linearGradient id="paint3_linear_3865_1929" x1="147.004" y1="23.2145" x2="160.785" y2="13.9804" gradientUnits="userSpaceOnUse">
<stop stop-color="#9129EC"/>
<stop offset="1" stop-color="#9F03FF"/>
</linearGradient>
<linearGradient id="paint4_linear_3865_1929" x1="167.63" y1="14.6836" x2="175.488" y2="22.9049" gradientUnits="userSpaceOnUse">
<stop stop-color="#930FFC"/>
<stop offset="0.865143" stop-color="#004BFB"/>
</linearGradient>
<linearGradient id="paint5_linear_3865_1929" x1="163.616" y1="19.3698" x2="163.616" y2="21.9151" gradientUnits="userSpaceOnUse">
<stop/>
<stop offset="1" stop-opacity="0"/>
</linearGradient>
<linearGradient id="paint6_linear_3865_1929" x1="120.97" y1="9.28182" x2="153.943" y2="17.5351" gradientUnits="userSpaceOnUse">
<stop stop-color="#0056FE"/>
<stop offset="0.815625" stop-color="#D159ED"/>
</linearGradient>
</defs>
</svg>
