<svg width="140" height="37" viewBox="0 0 140 37" fill="none" xmlns="http://www.w3.org/2000/svg">
<path d="M10.3102 28.8183C8.31289 28.8183 6.54604 28.3638 5.00964 27.4548C3.47324 26.533 2.26973 25.2718 1.39911 23.6714C0.528482 22.071 0.0931695 20.2657 0.0931695 18.2556C0.0931695 16.2327 0.528482 14.4338 1.39911 12.859C2.26973 11.2842 3.47324 10.0487 5.00964 9.15246C6.54604 8.25623 8.31289 7.80812 10.3102 7.80812C12.3075 7.80812 14.0744 8.25623 15.6108 9.15246C17.1472 10.0487 18.3507 11.2842 19.2213 12.859C20.0919 14.4338 20.5273 16.2327 20.5273 18.2556C20.5273 20.2657 20.0919 22.071 19.2213 23.6714C18.3507 25.2718 17.1472 26.533 15.6108 27.4548C14.0744 28.3638 12.3075 28.8183 10.3102 28.8183ZM10.3102 26.6482C11.8466 26.6482 13.1974 26.2897 14.3625 25.5727C15.5404 24.8557 16.4622 23.8635 17.128 22.5959C17.7937 21.3284 18.1266 19.8816 18.1266 18.2556C18.1266 16.6168 17.7937 15.1764 17.128 13.9345C16.4622 12.6926 15.5404 11.7259 14.3625 11.0345C13.1974 10.3304 11.8466 9.97828 10.3102 9.97828C8.78662 9.97828 7.43587 10.3304 6.25796 11.0345C5.08006 11.7259 4.15822 12.6926 3.49245 13.9345C2.82668 15.1764 2.49379 16.6168 2.49379 18.2556C2.49379 19.8816 2.82668 21.3284 3.49245 22.5959C4.15822 23.8635 5.08006 24.8557 6.25796 25.5727C7.43587 26.2897 8.78662 26.6482 10.3102 26.6482ZM23.2469 36.8652V8.07699H25.6283V36.8652H23.2469ZM32.6573 28.8376C31.0953 28.8376 29.6486 28.4599 28.317 27.7045C26.9855 26.9491 25.91 25.9248 25.0906 24.6317C24.284 23.3385 23.8807 21.8854 23.8807 20.2721C23.8807 20.2337 23.8807 20.2017 23.8807 20.1761C23.8807 20.1505 23.8807 20.1249 23.8807 20.0993L25.6283 20.0609C25.6283 20.0865 25.6283 20.1121 25.6283 20.1377C25.6283 20.1633 25.6283 20.1889 25.6283 20.2145C25.6283 21.3668 25.942 22.4295 26.5694 23.4025C27.1967 24.3756 28.0161 25.1502 29.0276 25.7263C30.0519 26.3025 31.1594 26.5906 32.3501 26.5906C34.3218 26.5906 35.9414 25.8928 37.2089 24.4972C38.4893 23.0889 39.1294 21.0147 39.1294 18.2748C39.1294 15.5221 38.4893 13.448 37.2089 12.0524C35.9414 10.6569 34.3218 9.95907 32.3501 9.95907C31.1594 9.95907 30.0519 10.2471 29.0276 10.8233C28.0161 11.3994 27.1967 12.1676 26.5694 13.1279C25.942 14.0881 25.6283 15.1508 25.6283 16.3159L23.8807 16.2583C23.8807 14.6451 24.284 13.1983 25.0906 11.918C25.91 10.6376 26.9855 9.63259 28.317 8.9028C29.6486 8.16021 31.0953 7.78891 32.6573 7.78891C34.309 7.78891 35.807 8.19862 37.1513 9.01803C38.4957 9.82464 39.5647 11.0089 40.3585 12.5709C41.1651 14.133 41.5684 16.0342 41.5684 18.2748C41.5684 20.541 41.1715 22.4615 40.3777 24.0363C39.5967 25.6111 38.5277 26.8082 37.1705 27.6276C35.8262 28.4342 34.3218 28.8376 32.6573 28.8376ZM44.7394 19.2735V17.1417H61.2557L60.7948 17.7947C60.7948 17.7179 60.7948 17.6539 60.7948 17.6026C60.7948 17.5386 60.7948 17.4746 60.7948 17.4106C60.7948 16.0919 60.5131 14.8627 59.9498 13.7232C59.3864 12.5838 58.567 11.6683 57.4915 10.9769C56.4289 10.2856 55.1293 9.93987 53.5929 9.93987C52.0309 9.93987 50.6546 10.2984 49.4639 11.0153C48.2731 11.7195 47.3449 12.699 46.6791 13.9537C46.0134 15.1956 45.6805 16.6424 45.6805 18.294C45.6805 19.9585 46.007 21.4244 46.6599 22.692C47.3257 23.9467 48.2539 24.9261 49.4446 25.6303C50.6354 26.3217 52.0245 26.6674 53.6121 26.6674C54.7772 26.6674 55.7887 26.5266 56.6465 26.2449C57.5171 25.9504 58.2341 25.5663 58.7975 25.0926C59.3736 24.6189 59.8089 24.1195 60.1034 23.5946C60.4107 23.0569 60.5899 22.5511 60.6411 22.0774H63.0034C62.9521 22.8328 62.7089 23.6074 62.2736 24.4012C61.8511 25.1822 61.2429 25.912 60.4491 26.5906C59.6681 27.2691 58.695 27.8197 57.5299 28.2422C56.3776 28.6519 55.0461 28.8568 53.5353 28.8568C51.5636 28.8568 49.8095 28.4086 48.2731 27.5124C46.7496 26.6162 45.546 25.3807 44.6626 23.8059C43.792 22.2182 43.3567 20.3938 43.3567 18.3324C43.3567 16.2583 43.7984 14.4338 44.6818 12.859C45.5652 11.2714 46.7752 10.0295 48.3116 9.13326C49.848 8.23703 51.5956 7.78891 53.5545 7.78891C55.5518 7.78891 57.2803 8.24343 58.7398 9.15246C60.1994 10.0615 61.3261 11.297 62.1199 12.859C62.9137 14.4082 63.3106 16.1495 63.3106 18.0828C63.3106 18.2492 63.3042 18.4605 63.2914 18.7165C63.2914 18.9726 63.285 19.1582 63.2722 19.2735H44.7394ZM80.6954 28.4727V18.3324C80.6954 17.7051 80.6954 17.2057 80.6954 16.8344C80.6954 16.4632 80.6954 16.0983 80.6954 15.7398C80.6954 14.6003 80.4905 13.608 80.0808 12.763C79.6839 11.9052 79.0694 11.2394 78.2372 10.7657C77.4049 10.2792 76.3359 10.0359 75.0299 10.0359C73.8776 10.0359 72.7957 10.324 71.7843 10.9001C70.7728 11.4635 69.9534 12.2317 69.326 13.2047C68.7115 14.1778 68.4042 15.2724 68.4042 16.4888L66.9638 15.951C66.9638 14.4018 67.3607 13.0127 68.1545 11.7835C68.9612 10.5544 70.011 9.58137 71.3042 8.86439C72.6101 8.1474 73.9929 7.78891 75.4524 7.78891C77.0016 7.78891 78.346 8.08339 79.4855 8.67234C80.625 9.24849 81.502 10.0871 82.1166 11.1882C82.7439 12.2765 83.0576 13.6016 83.0576 15.1636C83.0576 15.7014 83.0576 16.2775 83.0576 16.8921C83.0576 17.5066 83.0576 18.0636 83.0576 18.5629V28.4727H80.6954ZM66.0228 28.4727V8.07699H68.4042V28.4727H66.0228Z" fill="#222222"/>
<path fill-rule="evenodd" clip-rule="evenodd" d="M131.185 22.2702C131.424 23.7238 133.321 24.5033 134.575 22.9885C135.515 21.8522 137.198 21.6931 138.334 22.6331C139.47 23.5731 139.63 25.2564 138.689 26.3927C134.289 31.7113 126.126 28.8517 125.848 22.1444C125.837 22.0493 125.832 21.9554 125.832 21.8632L125.844 7.98352C125.844 6.60166 127.04 5.48144 128.514 5.48145C129.989 5.48145 131.185 6.60167 131.185 7.98353L131.185 22.2702Z" fill="url(#paint0_linear_3720_4861)"/>
<path fill-rule="evenodd" clip-rule="evenodd" d="M101.288 7.48747C102.565 8.22484 103.003 9.85794 102.265 11.1351L92.8508 27.4414C92.1134 28.7185 90.4803 29.1561 89.2032 28.4188C87.926 27.6814 87.4884 26.0483 88.2258 24.7711L97.6402 8.46485C98.3776 7.18769 100.011 6.7501 101.288 7.48747Z" fill="url(#paint1_linear_3720_4861)"/>
<path fill-rule="evenodd" clip-rule="evenodd" d="M115.735 28.916C114.26 28.916 113.065 27.7205 113.065 26.2458L113.065 12.0306C113.065 10.5558 114.26 9.36031 115.735 9.36031C117.21 9.36031 118.405 10.5558 118.405 12.0306L118.405 26.2458C118.405 27.7205 117.21 28.916 115.735 28.916Z" fill="url(#paint2_linear_3720_4861)"/>
<path fill-rule="evenodd" clip-rule="evenodd" d="M117.975 18.2826L116.993 18.3026L113.062 18.2763C113.098 17.2733 113.699 15.407 114.154 14.5336C114.63 13.6207 115.307 12.6811 116.163 11.8749C117.885 10.2533 120.619 8.96839 123.798 10.1602C125.063 10.6348 125.705 12.0456 125.23 13.3114C124.756 14.5772 123.345 15.2187 122.079 14.7441C121.187 14.4096 120.359 14.6479 119.519 15.439C119.094 15.8391 118.741 16.1795 118.495 16.7965C118.376 17.3674 118.402 18.2759 118.402 18.2759L117.975 18.2826Z" fill="url(#paint3_linear_3720_4861)"/>
<path fill-rule="evenodd" clip-rule="evenodd" d="M125.832 12.5935L125.832 10.332L134.619 10.3321C135.619 10.3321 136.96 11.301 136.96 12.6529C137.079 13.9497 136.017 15.2276 134.619 15.2276H125.844L125.832 12.5935Z" fill="url(#paint4_linear_3720_4861)"/>
<g style="mix-blend-mode:overlay" opacity="0.2">
<path d="M125.844 15.25H131.165L131.165 17.5649H125.844V15.25Z" fill="url(#paint5_linear_3720_4861)"/>
</g>
<path fill-rule="evenodd" clip-rule="evenodd" d="M97.4789 8.80268C97.6938 8.26754 98.0829 7.7978 98.621 7.4871C99.8982 6.74973 101.531 7.18732 102.269 8.46448L111.683 24.7708C112.42 26.0479 111.983 27.681 110.706 28.4184C109.429 29.1558 107.795 28.7182 107.058 27.441L99.9213 15.0796L99.9601 15.1793C98.544 12.3658 96.3578 12.066 95.4417 12.2678L97.4679 8.77456L97.4789 8.80268Z" fill="url(#paint6_linear_3720_4861)"/>
<defs>
<linearGradient id="paint0_linear_3720_4861" x1="125.832" y1="5.48145" x2="144.197" y2="10.2298" gradientUnits="userSpaceOnUse">
<stop stop-color="#9D0AFC"/>
<stop offset="1" stop-color="#0359FF"/>
</linearGradient>
<linearGradient id="paint1_linear_3720_4861" x1="99.2646" y1="10.2157" x2="103.585" y2="15.4069" gradientUnits="userSpaceOnUse">
<stop stop-color="#00DFBA"/>
<stop offset="1" stop-color="#048AFE"/>
</linearGradient>
<linearGradient id="paint2_linear_3720_4861" x1="115.814" y1="10.0746" x2="115.814" y2="30.589" gradientUnits="userSpaceOnUse">
<stop stop-color="#5900EB"/>
<stop offset="1" stop-color="#E367EE"/>
</linearGradient>
<linearGradient id="paint3_linear_3720_4861" x1="115.389" y1="18.3281" x2="126.269" y2="11.0376" gradientUnits="userSpaceOnUse">
<stop stop-color="#9129EC"/>
<stop offset="1" stop-color="#9F03FF"/>
</linearGradient>
<linearGradient id="paint4_linear_3720_4861" x1="131.673" y1="11.5926" x2="137.877" y2="18.0835" gradientUnits="userSpaceOnUse">
<stop stop-color="#930FFC"/>
<stop offset="0.865143" stop-color="#004BFB"/>
</linearGradient>
<linearGradient id="paint5_linear_3720_4861" x1="128.504" y1="15.2925" x2="128.504" y2="17.3021" gradientUnits="userSpaceOnUse">
<stop/>
<stop offset="1" stop-opacity="0"/>
</linearGradient>
<linearGradient id="paint6_linear_3720_4861" x1="94.8343" y1="7.3277" x2="120.867" y2="13.8438" gradientUnits="userSpaceOnUse">
<stop stop-color="#0056FE"/>
<stop offset="0.815625" stop-color="#D159ED"/>
</linearGradient>
</defs>
</svg>
