<svg width="338" height="27" viewBox="0 0 338 27" fill="none" xmlns="http://www.w3.org/2000/svg">
<path d="M11.9862 2.77963H6.50674L6.80258 2.2394V20.8643H5.7993V2.2394L6.13373 2.77963H0.628591V1.89211H11.9862V2.77963ZM25.8505 20.8643V15.6292C25.8505 15.3548 25.8505 15.0418 25.8505 14.6903C25.8505 14.3387 25.8505 13.9871 25.8505 13.6355C25.8505 13.2754 25.8505 12.9538 25.8505 12.6709C25.8505 11.1788 25.5118 10.0212 24.8344 9.198C24.1569 8.3748 23.1365 7.9632 21.7731 7.9632C20.8556 7.9632 20.0324 8.16471 19.3035 8.56774C18.5746 8.96219 18.0001 9.48526 17.5799 10.137C17.1597 10.7801 16.9497 11.4704 16.9497 12.2078L16.2294 12.0149C16.2294 11.1488 16.4695 10.3385 16.9497 9.58387C17.4299 8.8207 18.0987 8.2033 18.9562 7.73168C19.8137 7.26005 20.7998 7.02424 21.9146 7.02424C23.5352 7.02424 24.7615 7.52159 25.5932 8.51629C26.425 9.50241 26.8409 10.8658 26.8409 12.6066C26.8409 13.061 26.8409 13.5755 26.8409 14.15C26.8409 14.716 26.8409 15.2691 26.8409 15.8093V20.8643H25.8505ZM15.9721 20.8643V0.760217H16.9497V20.8643H15.9721ZM31.7021 14.4845V13.597H43.2655L43.0211 13.8285C43.0211 13.777 43.0211 13.7342 43.0211 13.6999C43.0211 13.6656 43.0211 13.6313 43.0211 13.597C43.0211 12.6108 42.811 11.689 42.3908 10.8315C41.9706 9.96546 41.3661 9.2666 40.5772 8.73495C39.7969 8.19472 38.8579 7.92461 37.7603 7.92461C36.6542 7.92461 35.6723 8.19472 34.8148 8.73495C33.9573 9.27517 33.2842 10.0083 32.7954 10.9344C32.3066 11.8605 32.0623 12.9024 32.0623 14.06C32.0623 15.2519 32.3066 16.3109 32.7954 17.237C33.2842 18.1546 33.9573 18.8791 34.8148 19.4108C35.6809 19.9339 36.6627 20.1954 37.7603 20.1954C38.6178 20.1954 39.3596 20.0754 39.9855 19.8353C40.6115 19.5866 41.1303 19.2736 41.5419 18.8963C41.9535 18.519 42.2665 18.1246 42.4809 17.713C42.7038 17.3014 42.8324 16.9241 42.8667 16.5811H43.87C43.8271 17.0441 43.6685 17.5372 43.3941 18.0602C43.1197 18.5833 42.7295 19.0764 42.2236 19.5394C41.7177 19.9939 41.0917 20.3669 40.3457 20.6585C39.5997 20.95 38.7336 21.0958 37.7475 21.0958C36.4698 21.0958 35.3293 20.7999 34.3261 20.2083C33.3314 19.608 32.5425 18.7805 31.9594 17.7258C31.3848 16.6711 31.0976 15.4577 31.0976 14.0857C31.0976 12.7052 31.3848 11.4875 31.9594 10.4328C32.5425 9.3695 33.3356 8.53772 34.3389 7.93748C35.3422 7.32865 36.4827 7.02424 37.7603 7.02424C39.0466 7.02424 40.1613 7.33723 41.1046 7.9632C42.0478 8.5806 42.7767 9.40808 43.2912 10.4457C43.8143 11.4832 44.0758 12.628 44.0758 13.8799C44.0758 13.9657 44.0715 14.0729 44.0629 14.2015C44.0629 14.3301 44.0587 14.4244 44.0501 14.4845H31.7021ZM51.8504 20.8643H50.294V1.89211H52.8922L61.7673 19.9382L61.6258 20.0153V1.89211H63.1822V20.8643H60.5454L51.696 2.84394L51.8504 2.76676V20.8643ZM67.8981 14.7031V13.2754H78.9598L78.6511 13.7127C78.6511 13.6613 78.6511 13.6184 78.6511 13.5841C78.6511 13.5412 78.6511 13.4983 78.6511 13.4555C78.6511 12.5723 78.4625 11.7491 78.0852 10.9859C77.7079 10.2227 77.1591 9.6096 76.4388 9.14655C75.7271 8.6835 74.8567 8.45197 73.8277 8.45197C72.7815 8.45197 71.8597 8.69207 71.0623 9.17227C70.2648 9.6439 69.6431 10.2999 69.1972 11.1402C68.7513 11.972 68.5284 12.941 68.5284 14.0471C68.5284 15.1619 68.747 16.1437 69.1843 16.9927C69.6302 17.833 70.2519 18.489 71.0494 18.9606C71.8469 19.4237 72.7773 19.6552 73.8406 19.6552C74.6209 19.6552 75.2983 19.5609 75.8728 19.3722C76.4559 19.175 76.9361 18.9177 77.3134 18.6005C77.6993 18.2832 77.9908 17.9488 78.1881 17.5972C78.3939 17.237 78.5139 16.8983 78.5482 16.5811H80.1303C80.096 17.087 79.9331 17.6058 79.6415 18.1374C79.3586 18.6605 78.9512 19.1493 78.4196 19.6037C77.8965 20.0582 77.2448 20.4269 76.4645 20.7099C75.6928 20.9843 74.801 21.1215 73.7891 21.1215C72.4686 21.1215 71.2938 20.8214 70.2648 20.2211C69.2444 19.6209 68.4383 18.7934 67.8466 17.7387C67.2635 16.6754 66.972 15.4534 66.972 14.0729C66.972 12.6837 67.2678 11.4618 67.8595 10.4071C68.4512 9.34377 69.2615 8.512 70.2905 7.91175C71.3195 7.3115 72.49 7.01138 73.802 7.01138C75.1397 7.01138 76.2973 7.31579 77.2748 7.92461C78.2524 8.53344 79.007 9.36092 79.5386 10.4071C80.0703 11.4446 80.3361 12.6108 80.3361 13.9057C80.3361 14.0171 80.3318 14.1586 80.3232 14.3301C80.3232 14.5016 80.319 14.626 80.3104 14.7031H67.8981ZM94.8064 20.8643L90.8319 7.20431H92.2725L96.0541 20.0925H95.7582L98.4079 7.20431H100.067L96.993 20.8643H94.8064ZM85.8027 20.8643L82.6899 7.20431H84.3492L87.0375 20.0925H86.7416L90.4846 7.20431H91.9252L88.0021 20.8643H85.8027ZM120.57 14.15C120.57 14.9389 120.424 15.7407 120.133 16.5553C119.841 17.37 119.399 18.1246 118.808 18.8191C118.216 19.5137 117.47 20.0754 116.57 20.5041C115.669 20.9243 114.61 21.1344 113.393 21.1344C111.738 21.1344 110.327 20.7185 109.161 19.8867C108.003 19.0464 107.12 17.893 106.511 16.4267C105.902 14.9604 105.598 13.2797 105.598 11.3846C105.598 9.48097 105.902 7.80028 106.511 6.34253C107.12 4.87621 108.003 3.72716 109.161 2.89539C110.327 2.06361 111.738 1.64773 113.393 1.64773C114.773 1.64773 115.948 1.91784 116.917 2.45806C117.895 2.99829 118.671 3.69286 119.245 4.54178C119.828 5.39071 120.214 6.27393 120.403 7.19145C120.514 7.6888 120.57 8.16043 120.57 8.60632H117.766C117.766 8.36622 117.744 8.10469 117.702 7.82171C117.607 7.13571 117.376 6.50545 117.007 5.93093C116.647 5.35641 116.162 4.89765 115.554 4.55465C114.953 4.21165 114.233 4.04015 113.393 4.04015C112.415 4.04015 111.553 4.31455 110.807 4.86334C110.061 5.40357 109.478 6.21819 109.058 7.30721C108.646 8.39624 108.441 9.75537 108.441 11.3846C108.441 13.0053 108.646 14.3644 109.058 15.462C109.478 16.551 110.061 17.3742 110.807 17.9316C111.553 18.4804 112.415 18.7548 113.393 18.7548C114.104 18.7548 114.73 18.6262 115.271 18.3689C115.811 18.1117 116.265 17.7644 116.634 17.3271C117.003 16.8898 117.281 16.3967 117.47 15.8479C117.667 15.2991 117.766 14.7331 117.766 14.15H120.57ZM123.869 20.8643V7.20431H126.66V11.5647L125.914 11.2303C125.974 10.6729 126.116 10.1412 126.339 9.63532C126.562 9.1294 126.858 8.67921 127.226 8.28476C127.604 7.88174 128.067 7.56446 128.616 7.33294C129.164 7.10142 129.799 6.98565 130.519 6.98565C131.068 6.98565 131.51 7.02853 131.844 7.11428C132.187 7.20003 132.397 7.26863 132.474 7.32008L131.883 9.94402C131.797 9.884 131.621 9.80682 131.355 9.7125C131.098 9.61817 130.738 9.57101 130.275 9.57101C129.572 9.57101 128.989 9.69535 128.526 9.94402C128.063 10.1927 127.694 10.5228 127.419 10.9344C127.145 11.346 126.948 11.7962 126.828 12.285C126.716 12.7652 126.66 13.2497 126.66 13.7384V20.8643H123.869ZM135.718 15.0118V12.8381H145.777L145.391 13.4812C145.391 13.4297 145.391 13.3783 145.391 13.3269C145.391 13.2668 145.391 13.2154 145.391 13.1725C145.391 12.4779 145.241 11.8391 144.941 11.256C144.641 10.6643 144.191 10.1927 143.59 9.84112C142.999 9.48097 142.257 9.3009 141.365 9.3009C140.473 9.3009 139.689 9.49383 139.011 9.87971C138.342 10.257 137.819 10.7972 137.442 11.5004C137.073 12.195 136.889 13.031 136.889 14.0086C136.889 15.0033 137.069 15.8608 137.429 16.5811C137.789 17.2928 138.308 17.8416 138.986 18.2275C139.663 18.6133 140.473 18.8063 141.417 18.8063C142.077 18.8063 142.647 18.742 143.127 18.6133C143.616 18.4761 144.015 18.2961 144.323 18.0731C144.641 17.8502 144.881 17.6101 145.044 17.3528C145.207 17.087 145.301 16.8254 145.327 16.5682H148.105C148.054 17.1256 147.869 17.6787 147.552 18.2275C147.243 18.7677 146.802 19.2607 146.227 19.7066C145.661 20.144 144.967 20.4955 144.143 20.7614C143.329 21.0186 142.39 21.1472 141.327 21.1472C139.903 21.1472 138.655 20.8471 137.584 20.2469C136.512 19.6466 135.676 18.8148 135.075 17.7515C134.475 16.6797 134.175 15.4534 134.175 14.0729C134.175 12.6666 134.479 11.4318 135.088 10.3685C135.697 9.30518 136.542 8.4777 137.622 7.88603C138.703 7.28578 139.942 6.98565 141.339 6.98565C142.763 6.98565 143.993 7.28578 145.031 7.88603C146.077 8.48627 146.883 9.31376 147.449 10.3685C148.015 11.4232 148.298 12.6366 148.298 14.0086C148.298 14.1715 148.294 14.3601 148.285 14.5745C148.277 14.7889 148.264 14.9347 148.247 15.0118H135.718ZM156.4 21.1344C155.371 21.1344 154.466 20.9714 153.686 20.6456C152.914 20.3197 152.314 19.8524 151.885 19.2436C151.456 18.6348 151.242 17.9016 151.242 17.0441C151.242 16.1266 151.482 15.3677 151.962 14.7674C152.451 14.1672 153.12 13.7041 153.969 13.3783C154.826 13.0439 155.799 12.8252 156.889 12.7223C158.509 12.5594 159.65 12.4008 160.31 12.2464C160.979 12.0921 161.313 11.8391 161.313 11.4875C161.313 11.4789 161.313 11.4704 161.313 11.4618C161.313 10.7672 161.017 10.2399 160.426 9.87971C159.834 9.51956 158.989 9.33948 157.892 9.33948C156.734 9.33948 155.838 9.54528 155.204 9.95688C154.578 10.3599 154.265 11.003 154.265 11.8863H151.525C151.525 10.8401 151.795 9.9526 152.335 9.22372C152.884 8.49485 153.639 7.94176 154.599 7.56446C155.559 7.17859 156.661 6.98565 157.905 6.98565C159.045 6.98565 160.083 7.16144 161.017 7.51301C161.961 7.85601 162.711 8.37051 163.268 9.05651C163.826 9.74251 164.104 10.5957 164.104 11.6161C164.104 11.7962 164.104 11.9763 164.104 12.1564C164.104 12.3279 164.104 12.5037 164.104 12.6837V18.1374C164.104 18.4547 164.117 18.7634 164.143 19.0635C164.169 19.3551 164.216 19.6166 164.284 19.8481C164.362 20.1139 164.452 20.3326 164.555 20.5041C164.666 20.6756 164.756 20.7957 164.825 20.8643H162.046C161.995 20.8128 161.918 20.7056 161.815 20.5427C161.721 20.3712 161.635 20.174 161.558 19.951C161.48 19.7366 161.42 19.4923 161.378 19.2179C161.343 18.9349 161.326 18.6305 161.326 18.3046L161.841 18.6648C161.583 19.1621 161.193 19.5952 160.67 19.9639C160.156 20.3326 159.534 20.6199 158.805 20.8257C158.085 21.0315 157.283 21.1344 156.4 21.1344ZM156.979 18.8191C157.776 18.8191 158.501 18.6948 159.152 18.4461C159.813 18.1889 160.34 17.803 160.734 17.2885C161.129 16.7654 161.326 16.1094 161.326 15.3205V13.0567L161.982 13.9185C161.433 14.1329 160.76 14.3087 159.963 14.4459C159.174 14.5745 158.359 14.6817 157.519 14.7674C156.361 14.8703 155.491 15.0719 154.908 15.372C154.325 15.6635 154.033 16.1523 154.033 16.8383C154.033 17.4986 154.273 17.9959 154.753 18.3304C155.242 18.6562 155.984 18.8191 156.979 18.8191ZM173.238 21.0958C172.784 21.0958 172.329 21.0486 171.875 20.9543C171.429 20.86 171.017 20.6885 170.64 20.4398C170.271 20.1825 169.976 19.8181 169.753 19.3465C169.53 18.8749 169.418 18.2575 169.418 17.4943C169.418 17.3142 169.418 17.1256 169.418 16.9283C169.418 16.7311 169.418 16.5296 169.418 16.3238V9.51956H166.138V7.20431H167.862C168.231 7.20431 168.518 7.19145 168.724 7.16573C168.938 7.13143 169.092 7.05854 169.187 6.94707C169.29 6.82702 169.354 6.63837 169.38 6.38112C169.405 6.12387 169.418 5.77229 169.418 5.32639V2.68959H172.209V7.20431H176.39V9.51956H172.209V15.5778C172.209 15.7493 172.209 15.9208 172.209 16.0923C172.209 16.2638 172.209 16.4224 172.209 16.5682C172.209 17.2542 172.291 17.7944 172.454 18.1889C172.625 18.5833 173.011 18.7805 173.611 18.7805C173.869 18.7805 174.113 18.7591 174.344 18.7162C174.576 18.6734 174.752 18.6262 174.872 18.5747V20.8514C174.717 20.9114 174.499 20.9672 174.216 21.0186C173.933 21.0701 173.607 21.0958 173.238 21.0958ZM179.351 20.8643V7.20431H182.104V20.8643H179.351ZM180.74 4.37457C180.26 4.37457 179.844 4.24595 179.493 3.9887C179.15 3.72287 178.978 3.35844 178.978 2.89539C178.978 2.44091 179.15 2.08505 179.493 1.8278C179.844 1.56198 180.26 1.42907 180.74 1.42907C181.212 1.42907 181.619 1.56198 181.962 1.8278C182.314 2.08505 182.49 2.44091 182.49 2.89539C182.49 3.35844 182.314 3.72287 181.962 3.9887C181.619 4.24595 181.212 4.37457 180.74 4.37457ZM197.537 7.20431L193.112 20.8643H189.408L184.867 7.20431H187.749L191.479 19.6938H191.041L194.656 7.20431H197.537ZM200.538 15.0118V12.8381H210.597L210.211 13.4812C210.211 13.4297 210.211 13.3783 210.211 13.3269C210.211 13.2668 210.211 13.2154 210.211 13.1725C210.211 12.4779 210.061 11.8391 209.761 11.256C209.461 10.6643 209.01 10.1927 208.41 9.84112C207.818 9.48097 207.077 9.3009 206.185 9.3009C205.293 9.3009 204.509 9.49383 203.831 9.87971C203.162 10.257 202.639 10.7972 202.262 11.5004C201.893 12.195 201.709 13.031 201.709 14.0086C201.709 15.0033 201.889 15.8608 202.249 16.5811C202.609 17.2928 203.128 17.8416 203.805 18.2275C204.483 18.6133 205.293 18.8063 206.236 18.8063C206.897 18.8063 207.467 18.742 207.947 18.6133C208.436 18.4761 208.835 18.2961 209.143 18.0731C209.461 17.8502 209.701 17.6101 209.864 17.3528C210.027 17.087 210.121 16.8254 210.147 16.5682H212.925C212.873 17.1256 212.689 17.6787 212.372 18.2275C212.063 18.7677 211.621 19.2607 211.047 19.7066C210.481 20.144 209.786 20.4955 208.963 20.7614C208.149 21.0186 207.21 21.1472 206.146 21.1472C204.723 21.1472 203.475 20.8471 202.403 20.2469C201.331 19.6466 200.495 18.8148 199.895 17.7515C199.295 16.6797 198.995 15.4534 198.995 14.0729C198.995 12.6666 199.299 11.4318 199.908 10.3685C200.517 9.30518 201.361 8.4777 202.442 7.88603C203.522 7.28578 204.761 6.98565 206.159 6.98565C207.583 6.98565 208.813 7.28578 209.851 7.88603C210.897 8.48627 211.703 9.31376 212.269 10.3685C212.835 11.4232 213.118 12.6366 213.118 14.0086C213.118 14.1715 213.114 14.3601 213.105 14.5745C213.096 14.7889 213.083 14.9347 213.066 15.0118H200.538ZM221.785 4.97911L223.586 3.07546V10.9344L222.686 9.80253H229.683V12.8895H222.686L223.586 11.7576V19.6809L221.785 17.7773H231.111V20.8643H219.573V1.89211H231.111V4.97911H221.785ZM240.34 21.173C238.84 21.173 237.523 20.8728 236.391 20.2726C235.26 19.6638 234.381 18.8191 233.755 17.7387C233.137 16.6582 232.829 15.4106 232.829 13.9957C232.829 12.5637 233.137 11.3246 233.755 10.2784C234.381 9.22372 235.26 8.40481 236.391 7.82171C237.523 7.23861 238.84 6.94707 240.34 6.94707C241.464 6.94707 242.458 7.11428 243.324 7.4487C244.19 7.77455 244.915 8.20759 245.498 8.74781C246.081 9.28803 246.523 9.87971 246.823 10.5228C247.123 11.166 247.273 11.8048 247.273 12.4393C247.273 12.4479 247.273 12.4651 247.273 12.4908C247.273 12.5079 247.273 12.5251 247.273 12.5422H243.324C243.324 12.4908 243.32 12.4436 243.311 12.4008C243.311 12.3493 243.303 12.2979 243.286 12.2464C243.217 11.8863 243.067 11.5475 242.836 11.2303C242.604 10.913 242.278 10.6557 241.858 10.4585C241.446 10.2527 240.932 10.1498 240.314 10.1498C239.654 10.1498 239.063 10.2956 238.539 10.5871C238.025 10.8787 237.618 11.3117 237.318 11.8863C237.017 12.4522 236.867 13.1554 236.867 13.9957C236.867 14.8189 237.017 15.5306 237.318 16.1309C237.618 16.7225 238.025 17.177 238.539 17.4943C239.063 17.8116 239.654 17.9702 240.314 17.9702C240.992 17.9702 241.545 17.8673 241.974 17.6615C242.402 17.4471 242.724 17.1642 242.938 16.8126C243.153 16.4524 243.281 16.058 243.324 15.6292H247.273C247.273 16.2638 247.123 16.9112 246.823 17.5715C246.531 18.2232 246.094 18.8191 245.511 19.3593C244.936 19.8996 244.216 20.3369 243.35 20.6713C242.484 21.0057 241.481 21.173 240.34 21.173ZM256.863 21.1601C255.388 21.1601 254.089 20.8557 252.966 20.2469C251.842 19.638 250.963 18.802 250.329 17.7387C249.703 16.6668 249.39 15.432 249.39 14.0343C249.39 12.6451 249.703 11.4189 250.329 10.3556C250.963 9.28375 251.842 8.45197 252.966 7.8603C254.089 7.26005 255.388 6.95993 256.863 6.95993C258.338 6.95993 259.637 7.26005 260.76 7.8603C261.884 8.45197 262.758 9.28375 263.384 10.3556C264.019 11.4189 264.336 12.6451 264.336 14.0343C264.336 15.432 264.019 16.6668 263.384 17.7387C262.758 18.802 261.884 19.638 260.76 20.2469C259.637 20.8557 258.338 21.1601 256.863 21.1601ZM256.863 17.9959C257.558 17.9959 258.162 17.833 258.677 17.5072C259.191 17.1813 259.59 16.7225 259.873 16.1309C260.156 15.5306 260.297 14.8318 260.297 14.0343C260.297 13.2368 260.156 12.5465 259.873 11.9634C259.59 11.3718 259.191 10.9173 258.677 10.6C258.162 10.2827 257.558 10.1241 256.863 10.1241C256.177 10.1241 255.573 10.2827 255.049 10.6C254.535 10.9173 254.136 11.3718 253.853 11.9634C253.57 12.5465 253.429 13.2368 253.429 14.0343C253.429 14.8318 253.57 15.5306 253.853 16.1309C254.136 16.7225 254.535 17.1813 255.049 17.5072C255.573 17.833 256.177 17.9959 256.863 17.9959ZM276.705 20.8643V15.0633C276.705 14.7374 276.705 14.4416 276.705 14.1758C276.705 13.9099 276.705 13.6698 276.705 13.4555C276.705 12.8895 276.632 12.375 276.487 11.912C276.341 11.4404 276.079 11.0631 275.702 10.7801C275.325 10.4971 274.78 10.3556 274.068 10.3556C273.451 10.3556 272.915 10.4971 272.461 10.7801C272.015 11.0631 271.672 11.4575 271.432 11.9634C271.191 12.4694 271.071 13.0525 271.071 13.7127L269.965 12.9153C269.965 11.7319 270.223 10.6943 270.737 9.80253C271.252 8.91074 271.946 8.21187 272.821 7.70595C273.704 7.20003 274.682 6.94707 275.753 6.94707C276.877 6.94707 277.799 7.1743 278.519 7.62878C279.248 8.07467 279.788 8.70065 280.139 9.5067C280.5 10.3042 280.68 11.2388 280.68 12.3107C280.68 12.748 280.68 13.2368 280.68 13.777C280.68 14.3173 280.68 14.8703 280.68 15.4363V20.8643H276.705ZM267.084 20.8643V7.20431H271.071V20.8643H267.084ZM290.765 21.1601C289.29 21.1601 287.991 20.8557 286.867 20.2469C285.744 19.638 284.865 18.802 284.231 17.7387C283.605 16.6668 283.292 15.432 283.292 14.0343C283.292 12.6451 283.605 11.4189 284.231 10.3556C284.865 9.28375 285.744 8.45197 286.867 7.8603C287.991 7.26005 289.29 6.95993 290.765 6.95993C292.24 6.95993 293.539 7.26005 294.662 7.8603C295.785 8.45197 296.66 9.28375 297.286 10.3556C297.921 11.4189 298.238 12.6451 298.238 14.0343C298.238 15.432 297.921 16.6668 297.286 17.7387C296.66 18.802 295.785 19.638 294.662 20.2469C293.539 20.8557 292.24 21.1601 290.765 21.1601ZM290.765 17.9959C291.459 17.9959 292.064 17.833 292.578 17.5072C293.093 17.1813 293.492 16.7225 293.775 16.1309C294.058 15.5306 294.199 14.8318 294.199 14.0343C294.199 13.2368 294.058 12.5465 293.775 11.9634C293.492 11.3718 293.093 10.9173 292.578 10.6C292.064 10.2827 291.459 10.1241 290.765 10.1241C290.079 10.1241 289.474 10.2827 288.951 10.6C288.437 10.9173 288.038 11.3718 287.755 11.9634C287.472 12.5465 287.33 13.2368 287.33 14.0343C287.33 14.8318 287.472 15.5306 287.755 16.1309C288.038 16.7225 288.437 17.1813 288.951 17.5072C289.474 17.833 290.079 17.9959 290.765 17.9959ZM309.514 20.8643V15.5778C309.514 15.0719 309.514 14.6345 309.514 14.2658C309.514 13.8885 309.514 13.5755 309.514 13.3269C309.514 12.9753 309.492 12.628 309.449 12.285C309.415 11.942 309.329 11.6247 309.192 11.3332C309.063 11.033 308.862 10.7972 308.587 10.6257C308.313 10.4457 307.94 10.3556 307.468 10.3556C307.031 10.3556 306.654 10.4499 306.337 10.6386C306.019 10.8187 305.758 11.0716 305.552 11.3975C305.355 11.7148 305.209 12.0835 305.115 12.5037C305.02 12.9153 304.973 13.3483 304.973 13.8028L303.88 12.9024C303.88 11.7448 304.09 10.7201 304.51 9.82826C304.93 8.92789 305.526 8.22474 306.298 7.71881C307.078 7.20431 308 6.94707 309.063 6.94707C310.204 6.94707 311.091 7.19145 311.726 7.68023C312.369 8.16042 312.819 8.80355 313.076 9.6096C313.342 10.4071 313.475 11.2903 313.475 12.2593C313.475 12.628 313.475 13.1253 313.475 13.7513C313.475 14.3773 313.475 15.1276 313.475 16.0022V20.8643H309.514ZM300.986 20.8643V7.20431H304.973V20.8643H300.986ZM318.003 20.8643V15.5906C318.003 15.0676 318.003 14.6174 318.003 14.2401C318.003 13.8628 318.003 13.5498 318.003 13.3011C318.003 12.9238 317.981 12.5637 317.938 12.2207C317.896 11.8691 317.806 11.5518 317.668 11.2689C317.531 10.9859 317.325 10.7629 317.051 10.6C316.777 10.4371 316.404 10.3556 315.932 10.3556C315.495 10.3556 315.117 10.4499 314.8 10.6386C314.491 10.8187 314.238 11.0673 314.041 11.3846C313.844 11.7019 313.698 12.062 313.604 12.4651C313.518 12.8681 313.475 13.2883 313.475 13.7256L312.382 12.8381C312.382 11.6976 312.588 10.6858 312.999 9.80253C313.419 8.91931 314.011 8.22474 314.774 7.71881C315.546 7.20431 316.468 6.94707 317.54 6.94707C318.654 6.94707 319.533 7.18288 320.177 7.6545C320.828 8.12612 321.291 8.75639 321.566 9.54528C321.849 10.3256 321.99 11.2003 321.99 12.1692C321.99 12.5551 321.99 13.0525 321.99 13.6613C321.99 14.2701 321.99 15.0118 321.99 15.8865V20.8643H318.003ZM325.939 26.7681C325.511 26.7681 325.125 26.751 324.782 26.7167C324.447 26.691 324.237 26.6609 324.151 26.6266V23.604C324.263 23.6554 324.456 23.694 324.73 23.7197C325.013 23.754 325.313 23.7712 325.631 23.7712C326.051 23.7712 326.428 23.6854 326.763 23.5139C327.106 23.351 327.397 23.1152 327.637 22.8065C327.886 22.5064 328.079 22.1505 328.216 21.7389L328.448 21.0443L323.74 7.20431H327.894L330.866 18.4075H330.403L333.258 7.20431H337.361L332.666 21.546C332.315 22.6264 331.882 23.5568 331.367 24.3371C330.853 25.1174 330.167 25.7177 329.309 26.1379C328.452 26.558 327.329 26.7681 325.939 26.7681Z" fill="#222222"/>
</svg>
